Coordinates
version=1
nRows=13
nColumns=40
inDegrees=yes

Units are S.I. units (second, meters, Newtons, ...)
If the header above contains a line with 'inDegrees', this indicates whether rotational values are in degrees (yes) or radians (no).

endheader
time	pelvis_tilt	pelvis_list	pelvis_rotation	pelvis_tx	pelvis_ty	pelvis_tz	hip_flexion_r	hip_adduction_r	hip_rotation_r	knee_angle_r	knee_angle_r_beta	ankle_angle_r	subtalar_angle_r	mtp_angle_r	hip_flexion_l	hip_adduction_l	hip_rotation_l	knee_angle_l	knee_angle_l_beta	ankle_angle_l	subtalar_angle_l	mtp_angle_l	lumbar_extension	lumbar_bending	lumbar_rotation	arm_flex_r	arm_add_r	arm_rot_r	elbow_flex_r	pro_sup_r	wrist_flex_r	wrist_dev_r	arm_flex_l	arm_add_l	arm_rot_l	elbow_flex_l	pro_sup_l	wrist_flex_l	wrist_dev_l
      0.16000000	      2.29400753	     -0.16670288	      4.09452936	     -0.99162087	      0.83387351	      0.26449082	     18.82314486	      2.63584445	     -3.73671484	     19.98875741	      0.34886963	     -6.32522995	      0.00000000	      0.00000000	    -12.37105999	     -2.29054256	     -6.85724053	     42.24398377	      0.73729661	    -22.99659666	      0.00000000	      0.00000000	    -13.22912002	      0.90897420	     -5.43307219	    -10.00112860	     -2.97281606	     -5.10976971	     38.17124159	     88.78413339	      3.59256094	     14.95386323	     -6.31085537	     -0.27263744	    -12.34023626	     52.35162370	     89.18734603	     -6.26348531	      7.75107805
      0.17000000	      2.15858822	     -0.76597412	      3.65378765	     -0.97675142	      0.83478839	      0.26566971	     18.15892523	      3.52989734	     -3.15366402	     20.49372546	      0.35768299	     -5.19874528	      0.00000000	      0.00000000	    -10.81090129	     -3.59657754	     -7.92367049	     45.28832080	      0.79043031	    -23.48198539	      0.00000000	      0.00000000	    -12.86357804	      1.46062042	     -4.50324431	    -10.19310583	     -3.13133738	     -5.36957377	     38.49927902	     88.83680234	      4.32289218	     17.00078605	     -6.64709898	     -0.21743241	    -11.91332901	     51.77862664	     89.19296261	     -5.41373822	      9.11537843
      0.18000000	      2.12635077	     -1.38784344	      3.19123044	     -0.96217148	      0.83603661	      0.26694187	     17.23666490	      4.47178474	     -2.69193626	     20.68348833	      0.36099497	     -4.19254482	      0.00000000	      0.00000000	     -9.33790651	     -4.93140441	     -8.89831643	     48.15097341	      0.84039302	    -23.31207576	      0.00000000	      0.00000000	    -12.67683249	      2.00616356	     -3.72800841	    -10.13137529	     -3.36125703	     -5.15238434	     38.47428213	     88.85401030	      4.87986732	     17.65077962	     -7.08446891	     -0.13119994	    -11.78216047	     51.32370042	     89.19706152	     -4.93814546	      9.80226290
      0.19000000	      2.08819514	     -1.80418974	      2.83064276	     -0.94789140	      0.83733105	      0.26791652	     16.23124329	      5.15125991	     -2.20897683	     20.73780186	      0.36194292	     -2.98337878	      0.00000000	      0.00000000	     -7.80093905	     -6.03386046	     -9.63354493	     50.84883488	      0.88747959	    -22.48799551	      0.00000000	      0.00000000	    -12.51825378	      2.36029010	     -3.14724687	     -9.99953937	     -3.54152549	     -4.90537305	     38.43087651	     88.87187453	      5.27595943	     18.14342963	     -7.56609201	     -0.13350019	    -11.48427237	     50.94792543	     89.20175466	     -4.48505242	     10.47400650
      0.20000000	      1.93990771	     -2.08532698	      2.48410442	     -0.93425172	      0.83851113	      0.26893118	     15.31954523	      5.67330077	     -1.79177767	     20.66998519	      0.36075930	     -1.92039364	      0.00000000	      0.00000000	     -6.02808983	     -6.89464796	    -10.03283648	     53.40236256	      0.93204706	    -20.91685301	      0.00000000	      0.00000000	    -12.31095069	      2.57962761	     -2.68376184	     -9.72574556	     -3.66780884	     -4.76907184	     38.38505819	     88.88753151	      5.70109217	     18.66826006	     -7.99088362	     -0.23948733	    -11.22035988	     50.54869714	     89.20840973	     -3.81229024	     11.48857797
      0.21000000	      1.94590205	     -2.15843345	      2.18233187	     -0.92077333	      0.83997673	      0.27001786	     14.13875938	      5.97651320	     -1.43590251	     20.43199196	      0.35660553	     -0.76169921	      0.00000000	      0.00000000	     -4.43464023	     -7.53113335	    -10.39709680	     55.61579064	      0.97067866	    -18.79978148	      0.00000000	      0.00000000	    -12.30970430	      2.55258344	     -2.32686677	     -9.38882273	     -3.73051727	     -4.50726309	     38.32640095	     88.90952218	      5.93170271	     18.86122170	     -8.43660765	     -0.45372813	    -10.88620152	     50.24944888	     89.20881894	     -3.34729656	     12.14546239
      0.22000000	      2.10553694	     -1.96742144	      1.93045716	     -0.90803836	      0.84189804	      0.27066547	     12.76668859	      5.96535842	     -0.91343913	     20.04797468	      0.34990317	      0.13929062	      0.00000000	      0.00000000	     -2.88251550	     -7.68844468	    -10.39144940	     57.47553835	      1.00313738	    -16.88785699	      0.00000000	      0.00000000	    -12.58688150	      2.29250031	     -2.01495100	     -8.88471627	     -3.76176758	     -4.38000226	     38.15521983	     88.92914101	      6.01568876	     18.92433416	     -8.74264543	     -0.63752091	    -10.56495156	     49.95019865	     89.22142359	     -3.09463309	     12.50286877
      0.23000000	      1.66270641	     -2.02287897	      1.92393407	     -0.89541757	      0.84240279	      0.27100118	     12.14939029	      6.08676269	     -1.07150804	     19.83890112	      0.34625414	      1.02199322	      0.00000000	      0.00000000	     -0.54304334	     -8.11920135	    -10.25670721	     59.40323734	      1.03678208	    -13.34791253	      0.00000000	      0.00000000	    -12.09696708	      2.32870660	     -1.97104191	     -8.48653383	     -3.80799728	     -4.17648418	     38.06584858	     88.93458499	      6.14271880	     18.90022328	     -9.13657869	     -0.88497475	    -10.24877127	     49.66180061	     89.21936830	     -2.34833153	     13.77245039
      0.24000000	      1.56731439	     -1.70913551	      1.95588532	     -0.88335244	      0.84358554	      0.27137024	     11.08540475	      5.85589624	     -0.96565374	     19.43111909	      0.33913701	      1.82727002	      0.00000000	      0.00000000	      1.47802154	     -8.01058741	     -9.91187783	     60.82677976	      1.06162758	    -10.57023248	      0.00000000	      0.00000000	    -12.12792098	      1.91742798	     -2.14817444	     -7.80721081	     -3.74959995	     -3.81246847	     37.74958421	     88.94035502	      5.83514878	     18.18786532	     -9.60099656	     -1.10964986	    -11.18202716	     50.18637188	     89.24123686	      2.17206479	     18.17147655
      0.25000000	      1.53926236	     -1.30819512	      1.94296018	     -0.87138499	      0.84492499	      0.27150608	      9.92817259	      5.51114014	     -0.88288505	     18.97232869	      0.33112960	      2.49919893	      0.00000000	      0.00000000	      3.35839091	     -7.68245622	     -9.62655328	     61.78357003	      1.07832672	     -7.73110052	      0.00000000	      0.00000000	    -12.24698575	      1.48553304	     -2.18724558	     -7.23201720	     -3.68182726	     -3.80688575	     37.73483247	     88.94930709	      5.79629870	     18.07237619	     -9.88712795	     -1.42489496	    -10.79385146	     49.91993097	     89.24579422	      2.32903372	     18.39471323
      0.26000000	      1.22362721	     -1.00652654	      2.16327072	     -0.85980336	      0.84555595	      0.27133965	      9.16047928	      5.20617963	     -1.18804899	     18.59637922	      0.32456805	      3.13892667	      0.00000000	      0.00000000	      5.72812658	     -7.34216469	     -9.00183817	     62.60554017	      1.09267281	     -5.02767222	      0.00000000	      0.00000000	    -12.07720580	      1.14178551	     -2.39845527	     -6.63008674	     -3.61690758	     -3.48767946	     37.48651071	     88.95165785	      4.91514837	     16.81327471	    -10.16252373	     -1.73231041	    -10.80656278	     49.89201878	     89.25503474	      3.62052141	     19.97202862
      0.27000000	      1.17965425	     -0.54656480	      2.19329088	     -0.84834083	      0.84664930	      0.27132526	      8.03587881	      4.78910064	     -1.05221743	     18.06430838	      0.31528166	      3.53981255	      0.00000000	      0.00000000	      7.66339770	     -6.75515894	     -8.62175079	     62.89295473	      1.09768914	     -2.81749462	      0.00000000	      0.00000000	    -12.25025631	      0.64430936	     -2.44448758	     -6.03532066	     -3.51238921	     -3.60246745	     37.57728298	     88.94992328	      4.86204453	     16.71970890	    -10.36447293	     -2.02634376	    -10.56196389	     49.68691954	     89.26607767	      3.71533559	     20.10767426
      0.28000000	      1.00830163	     -0.15671352	      2.31487287	     -0.83693242	      0.84729667	      0.27105235	      7.07418017	      4.40736036	     -1.19308297	     17.58365898	      0.30689274	      4.01549261	      0.00000000	      0.00000000	      9.72286863	     -6.14501353	     -8.16219951	     62.87179368	      1.09731981	     -0.66863760	      0.00000000	      0.00000000	    -12.27460917	      0.24289754	     -2.54803784	     -5.48767611	     -3.42409445	     -3.73696442	     37.74307073	     88.95032945	      4.78691432	     16.53475315	    -10.57690455	     -2.31566272	    -10.33196325	     49.49829189	     89.27770372	      3.81928154	     20.30329686
